<svg width="984" height="1027" viewBox="0 0 984 1027" fill="none" xmlns="http://www.w3.org/2000/svg">
<circle cx="893" cy="936" r="91" fill="#1976D2"/>
<circle cx="802.5" cy="163.5" r="119.5" fill="#1976D2"/>
<circle cx="119.5" cy="816.5" r="119.5" fill="#1976D2"/>
<rect x="769.379" y="776" width="201.286" height="41.9728" rx="20.9864" transform="rotate(48.1847 769.379 776)" fill="#1976D2"/>
<path d="M482 0C540.671 0 596.894 10.4834 648.897 29.6787C676.163 39.7427 681.35 74.9852 670.271 101.854C663.007 119.466 659 138.765 659 159C659 241.843 726.157 309 809 309C828.58 309 847.283 305.248 864.431 298.424C891.437 287.677 926.616 293.297 936.342 320.687C954.251 371.122 964 425.423 964 482C964 748.201 748.201 964 482 964C411.48 964 344.498 948.855 284.127 921.641C262.126 911.723 255.789 884.641 261.598 861.217C264.474 849.619 266 837.488 266 825C266 742.157 198.843 675 116 675C106.881 675 97.9523 675.813 89.2822 677.372C65.5252 681.643 38.9023 673.555 30.4404 650.949C10.7606 598.374 0 541.444 0 482C0 215.799 215.799 0 482 0ZM433 196C415.327 196 401 210.327 401 228V354C401 379.405 380.405 400 355 400H229C211.327 400 197 414.327 197 432V532C197 549.673 211.327 564 229 564H355C380.405 564 401 584.595 401 610V736C401 753.673 415.327 768 433 768H532C549.673 768 564 753.673 564 736V610C564 584.595 584.595 564 610 564H737C754.673 564 769 549.673 769 532V432C769 414.327 754.673 400 737 400H610C584.595 400 564 379.405 564 354V228C564 210.327 549.673 196 532 196H433Z" fill="#1976D2"/>
</svg>
