<svg width="1200" height="1200" viewBox="0 0 1200 1200" fill="none" xmlns="http://www.w3.org/2000/svg">
<rect width="1200" height="1200" rx="117" fill="#F5F5F5"/>
<circle cx="1001" cy="1023" r="91" fill="#1976D2"/>
<circle cx="910.5" cy="250.5" r="119.5" fill="#1976D2"/>
<circle cx="227.5" cy="903.5" r="119.5" fill="#1976D2"/>
<rect x="877.379" y="863" width="201.286" height="41.9728" rx="20.9864" transform="rotate(48.1847 877.379 863)" fill="#1976D2"/>
<path d="M590 87C648.671 87 704.894 97.4834 756.897 116.679C784.163 126.743 789.35 161.985 778.271 188.854C771.007 206.466 767 225.765 767 246C767 328.843 834.157 396 917 396C936.58 396 955.283 392.248 972.431 385.424C999.437 374.677 1034.62 380.297 1044.34 407.687C1062.25 458.122 1072 512.423 1072 569C1072 835.201 856.201 1051 590 1051C519.48 1051 452.498 1035.85 392.127 1008.64C370.126 998.723 363.789 971.641 369.598 948.217C372.474 936.619 374 924.488 374 912C374 829.157 306.843 762 224 762C214.881 762 205.952 762.813 197.282 764.372C173.525 768.643 146.902 760.555 138.44 737.949C118.761 685.374 108 628.444 108 569C108 302.799 323.799 87 590 87ZM541 283C523.327 283 509 297.327 509 315V441C509 466.405 488.405 487 463 487H337C319.327 487 305 501.327 305 519V619C305 636.673 319.327 651 337 651H463C488.405 651 509 671.595 509 697V823C509 840.673 523.327 855 541 855H640C657.673 855 672 840.673 672 823V697C672 671.595 692.595 651 718 651H845C862.673 651 877 636.673 877 619V519C877 501.327 862.673 487 845 487H718C692.595 487 672 466.405 672 441V315C672 297.327 657.673 283 640 283H541Z" fill="#1976D2"/>
</svg>
