<svg width="1603" height="776" viewBox="0 0 1603 776" fill="none" xmlns="http://www.w3.org/2000/svg">
<path d="M756.28 369V257H777.72L825.4 336.04H814.04L860.92 257H882.2L882.52 369H858.2L858.04 294.28H862.52L825.08 357.16H813.4L775.16 294.28H780.6V369H756.28ZM950.053 370.28C940.239 370.28 931.599 368.36 924.133 364.52C916.773 360.68 911.066 355.453 907.013 348.84C902.959 342.12 900.933 334.493 900.933 325.96C900.933 317.32 902.906 309.693 906.853 303.08C910.906 296.36 916.399 291.133 923.333 287.4C930.266 283.56 938.106 281.64 946.853 281.64C955.279 281.64 962.853 283.453 969.573 287.08C976.399 290.6 981.786 295.72 985.733 302.44C989.679 309.053 991.653 317 991.653 326.28C991.653 327.24 991.599 328.36 991.493 329.64C991.386 330.813 991.279 331.933 991.173 333H921.253V318.44H978.052L968.453 322.76C968.453 318.28 967.546 314.387 965.733 311.08C963.919 307.773 961.413 305.213 958.213 303.4C955.013 301.48 951.279 300.52 947.013 300.52C942.746 300.52 938.959 301.48 935.653 303.4C932.453 305.213 929.946 307.827 928.133 311.24C926.319 314.547 925.413 318.493 925.413 323.08V326.92C925.413 331.613 926.426 335.773 928.453 339.4C930.586 342.92 933.519 345.64 937.253 347.56C941.093 349.373 945.573 350.28 950.693 350.28C955.279 350.28 959.279 349.587 962.693 348.2C966.213 346.813 969.413 344.733 972.293 341.96L985.573 356.36C981.626 360.84 976.666 364.307 970.693 366.76C964.719 369.107 957.839 370.28 950.053 370.28ZM1045.23 370.28C1037.12 370.28 1029.82 368.467 1023.31 364.84C1016.8 361.107 1011.63 355.933 1007.79 349.32C1004.06 342.707 1002.19 334.92 1002.19 325.96C1002.19 316.893 1004.06 309.053 1007.79 302.44C1011.63 295.827 1016.8 290.707 1023.31 287.08C1029.82 283.453 1037.12 281.64 1045.23 281.64C1052.48 281.64 1058.83 283.24 1064.27 286.44C1069.71 289.64 1073.92 294.493 1076.91 301C1079.9 307.507 1081.39 315.827 1081.39 325.96C1081.39 335.987 1079.95 344.307 1077.07 350.92C1074.19 357.427 1070.03 362.28 1064.59 365.48C1059.26 368.68 1052.8 370.28 1045.23 370.28ZM1049.55 349.8C1053.6 349.8 1057.28 348.84 1060.59 346.92C1063.9 345 1066.51 342.28 1068.43 338.76C1070.46 335.133 1071.47 330.867 1071.47 325.96C1071.47 320.947 1070.46 316.68 1068.43 313.16C1066.51 309.64 1063.9 306.92 1060.59 305C1057.28 303.08 1053.6 302.12 1049.55 302.12C1045.39 302.12 1041.66 303.08 1038.35 305C1035.04 306.92 1032.38 309.64 1030.35 313.16C1028.43 316.68 1027.47 320.947 1027.47 325.96C1027.47 330.867 1028.43 335.133 1030.35 338.76C1032.38 342.28 1035.04 345 1038.35 346.92C1041.66 348.84 1045.39 349.8 1049.55 349.8ZM1072.11 369V351.4L1072.59 325.8L1070.99 300.36V250.28H1095.95V369H1072.11ZM1197.61 257H1223.53V369H1197.61V257ZM1146.73 369H1120.81V257H1146.73V369ZM1199.53 323.08H1144.81V301.16H1199.53V323.08ZM1284.59 370.28C1277.44 370.28 1271.04 368.893 1265.39 366.12C1259.84 363.347 1255.52 359.133 1252.43 353.48C1249.34 347.72 1247.79 340.413 1247.79 331.56V282.92H1272.75V327.88C1272.75 335.027 1274.24 340.307 1277.23 343.72C1280.32 347.027 1284.64 348.68 1290.19 348.68C1294.03 348.68 1297.44 347.88 1300.43 346.28C1303.42 344.573 1305.76 342.013 1307.47 338.6C1309.18 335.08 1310.03 330.707 1310.03 325.48V282.92H1334.99V369H1311.31V345.32L1315.63 352.2C1312.75 358.173 1308.48 362.707 1302.83 365.8C1297.28 368.787 1291.2 370.28 1284.59 370.28ZM1408.99 370.28C1401.42 370.28 1394.91 368.68 1389.47 365.48C1384.03 362.28 1379.87 357.427 1376.99 350.92C1374.11 344.307 1372.67 335.987 1372.67 325.96C1372.67 315.827 1374.17 307.507 1377.15 301C1380.25 294.493 1384.51 289.64 1389.95 286.44C1395.39 283.24 1401.74 281.64 1408.99 281.64C1417.1 281.64 1424.35 283.453 1430.75 287.08C1437.26 290.707 1442.38 295.827 1446.11 302.44C1449.95 309.053 1451.87 316.893 1451.87 325.96C1451.87 334.92 1449.95 342.707 1446.11 349.32C1442.38 355.933 1437.26 361.107 1430.75 364.84C1424.35 368.467 1417.1 370.28 1408.99 370.28ZM1358.11 369V250.28H1383.07V300.36L1381.47 325.8L1381.95 351.4V369H1358.11ZM1404.67 349.8C1408.83 349.8 1412.51 348.84 1415.71 346.92C1419.02 345 1421.63 342.28 1423.55 338.76C1425.58 335.133 1426.59 330.867 1426.59 325.96C1426.59 320.947 1425.58 316.68 1423.55 313.16C1421.63 309.64 1419.02 306.92 1415.71 305C1412.51 303.08 1408.83 302.12 1404.67 302.12C1400.51 302.12 1396.78 303.08 1393.47 305C1390.17 306.92 1387.55 309.64 1385.63 313.16C1383.71 316.68 1382.75 320.947 1382.75 325.96C1382.75 330.867 1383.71 335.133 1385.63 338.76C1387.55 342.28 1390.17 345 1393.47 346.92C1396.78 348.84 1400.51 349.8 1404.67 349.8ZM1519.46 370.28C1511.89 370.28 1505.38 368.68 1499.94 365.48C1494.5 362.28 1490.34 357.427 1487.46 350.92C1484.58 344.307 1483.14 335.987 1483.14 325.96C1483.14 315.827 1484.64 307.507 1487.62 301C1490.72 294.493 1494.98 289.64 1500.42 286.44C1505.86 283.24 1512.21 281.64 1519.46 281.64C1527.57 281.64 1534.82 283.453 1541.22 287.08C1547.73 290.707 1552.85 295.827 1556.58 302.44C1560.42 309.053 1562.34 316.893 1562.34 325.96C1562.34 334.92 1560.42 342.707 1556.58 349.32C1552.85 355.933 1547.73 361.107 1541.22 364.84C1534.82 368.467 1527.57 370.28 1519.46 370.28ZM1468.58 369V250.28H1493.54V300.36L1491.94 325.8L1492.42 351.4V369H1468.58ZM1515.14 349.8C1519.3 349.8 1522.98 348.84 1526.18 346.92C1529.49 345 1532.1 342.28 1534.02 338.76C1536.05 335.133 1537.06 330.867 1537.06 325.96C1537.06 320.947 1536.05 316.68 1534.02 313.16C1532.1 309.64 1529.49 306.92 1526.18 305C1522.98 303.08 1519.3 302.12 1515.14 302.12C1510.98 302.12 1507.25 303.08 1503.94 305C1500.64 306.92 1498.02 309.64 1496.1 313.16C1494.18 316.68 1493.22 320.947 1493.22 325.96C1493.22 330.867 1494.18 335.133 1496.1 338.76C1498.02 342.28 1500.64 345 1503.94 346.92C1507.25 348.84 1510.98 349.8 1515.14 349.8Z" fill="#64B5F6"/>
<path d="M761.273 388.455V435H755.636V388.455H761.273ZM777.21 388.455V435H771.847V388.455H777.21ZM805.034 448.091V400.091H810.216V405.636H810.852C811.246 405.03 811.792 404.258 812.489 403.318C813.201 402.364 814.216 401.515 815.534 400.773C816.867 400.015 818.67 399.636 820.943 399.636C823.883 399.636 826.473 400.371 828.716 401.841C830.958 403.311 832.708 405.394 833.966 408.091C835.223 410.788 835.852 413.97 835.852 417.636C835.852 421.333 835.223 424.538 833.966 427.25C832.708 429.947 830.966 432.038 828.739 433.523C826.511 434.992 823.943 435.727 821.034 435.727C818.792 435.727 816.996 435.356 815.648 434.614C814.299 433.856 813.261 433 812.534 432.045C811.807 431.076 811.246 430.273 810.852 429.636H810.398V448.091H805.034ZM810.307 417.545C810.307 420.182 810.693 422.508 811.466 424.523C812.239 426.523 813.367 428.091 814.852 429.227C816.337 430.348 818.155 430.909 820.307 430.909C822.549 430.909 824.42 430.318 825.92 429.136C827.436 427.939 828.572 426.333 829.33 424.318C830.102 422.288 830.489 420.03 830.489 417.545C830.489 415.091 830.11 412.879 829.352 410.909C828.61 408.924 827.481 407.356 825.966 406.205C824.466 405.038 822.58 404.455 820.307 404.455C818.125 404.455 816.292 405.008 814.807 406.114C813.322 407.205 812.201 408.735 811.443 410.705C810.686 412.659 810.307 414.939 810.307 417.545ZM866.034 420.727V400.091H871.398V435H866.034V429.091H865.67C864.852 430.864 863.58 432.371 861.852 433.614C860.125 434.841 857.943 435.455 855.307 435.455C853.125 435.455 851.186 434.977 849.489 434.023C847.792 433.053 846.458 431.598 845.489 429.659C844.519 427.705 844.034 425.242 844.034 422.273V400.091H849.398V421.909C849.398 424.455 850.11 426.485 851.534 428C852.973 429.515 854.807 430.273 857.034 430.273C858.367 430.273 859.723 429.932 861.102 429.25C862.496 428.568 863.663 427.523 864.602 426.114C865.557 424.705 866.034 422.909 866.034 420.727ZM886.585 414V435H881.222V400.091H886.403V405.545H886.858C887.676 403.773 888.919 402.348 890.585 401.273C892.252 400.182 894.403 399.636 897.04 399.636C899.403 399.636 901.472 400.121 903.244 401.091C905.017 402.045 906.396 403.5 907.381 405.455C908.366 407.394 908.858 409.848 908.858 412.818V435H903.494V413.182C903.494 410.439 902.782 408.303 901.358 406.773C899.934 405.227 897.979 404.455 895.494 404.455C893.782 404.455 892.252 404.826 890.903 405.568C889.57 406.311 888.517 407.394 887.744 408.818C886.972 410.242 886.585 411.97 886.585 414ZM933.841 400.091V404.636H915.75V400.091H933.841ZM921.023 391.727H926.386V425C926.386 426.515 926.606 427.652 927.045 428.409C927.5 429.152 928.076 429.652 928.773 429.909C929.485 430.152 930.235 430.273 931.023 430.273C931.614 430.273 932.098 430.242 932.477 430.182C932.856 430.106 933.159 430.045 933.386 430L934.477 434.818C934.114 434.955 933.606 435.091 932.955 435.227C932.303 435.379 931.477 435.455 930.477 435.455C928.962 435.455 927.477 435.129 926.023 434.477C924.583 433.826 923.386 432.833 922.432 431.5C921.492 430.167 921.023 428.485 921.023 426.455V391.727ZM955.716 435.727C952.564 435.727 949.799 434.977 947.42 433.477C945.057 431.977 943.208 429.879 941.875 427.182C940.557 424.485 939.898 421.333 939.898 417.727C939.898 414.091 940.557 410.917 941.875 408.205C943.208 405.492 945.057 403.386 947.42 401.886C949.799 400.386 952.564 399.636 955.716 399.636C958.867 399.636 961.625 400.386 963.989 401.886C966.367 403.386 968.216 405.492 969.534 408.205C970.867 410.917 971.534 414.091 971.534 417.727C971.534 421.333 970.867 424.485 969.534 427.182C968.216 429.879 966.367 431.977 963.989 433.477C961.625 434.977 958.867 435.727 955.716 435.727ZM955.716 430.909C958.11 430.909 960.08 430.295 961.625 429.068C963.17 427.841 964.314 426.227 965.057 424.227C965.799 422.227 966.17 420.061 966.17 417.727C966.17 415.394 965.799 413.22 965.057 411.205C964.314 409.189 963.17 407.561 961.625 406.318C960.08 405.076 958.11 404.455 955.716 404.455C953.322 404.455 951.352 405.076 949.807 406.318C948.261 407.561 947.117 409.189 946.375 411.205C945.633 413.22 945.261 415.394 945.261 417.727C945.261 420.061 945.633 422.227 946.375 424.227C947.117 426.227 948.261 427.841 949.807 429.068C951.352 430.295 953.322 430.909 955.716 430.909ZM1010.9 435.727C1007.99 435.727 1005.43 434.992 1003.2 433.523C1000.97 432.038 999.229 429.947 997.972 427.25C996.714 424.538 996.085 421.333 996.085 417.636C996.085 413.97 996.714 410.788 997.972 408.091C999.229 405.394 1000.98 403.311 1003.22 401.841C1005.46 400.371 1008.05 399.636 1010.99 399.636C1013.27 399.636 1015.06 400.015 1016.38 400.773C1017.71 401.515 1018.73 402.364 1019.43 403.318C1020.14 404.258 1020.69 405.03 1021.09 405.636H1021.54V388.455H1026.9V435H1021.72V429.636H1021.09C1020.69 430.273 1020.13 431.076 1019.4 432.045C1018.68 433 1017.64 433.856 1016.29 434.614C1014.94 435.356 1013.15 435.727 1010.9 435.727ZM1011.63 430.909C1013.78 430.909 1015.6 430.348 1017.09 429.227C1018.57 428.091 1019.7 426.523 1020.47 424.523C1021.24 422.508 1021.63 420.182 1021.63 417.545C1021.63 414.939 1021.25 412.659 1020.49 410.705C1019.74 408.735 1018.62 407.205 1017.13 406.114C1015.65 405.008 1013.81 404.455 1011.63 404.455C1009.36 404.455 1007.46 405.038 1005.95 406.205C1004.45 407.356 1003.32 408.924 1002.56 410.909C1001.82 412.879 1001.45 415.091 1001.45 417.545C1001.45 420.03 1001.83 422.288 1002.59 424.318C1003.36 426.333 1004.49 427.939 1005.99 429.136C1007.51 430.318 1009.39 430.909 1011.63 430.909ZM1037.47 435V400.091H1042.84V435H1037.47ZM1040.2 394.273C1039.15 394.273 1038.25 393.917 1037.49 393.205C1036.75 392.492 1036.38 391.636 1036.38 390.636C1036.38 389.636 1036.75 388.78 1037.49 388.068C1038.25 387.356 1039.15 387 1040.2 387C1041.24 387 1042.14 387.356 1042.88 388.068C1043.64 388.78 1044.02 389.636 1044.02 390.636C1044.02 391.636 1043.64 392.492 1042.88 393.205C1042.14 393.917 1041.24 394.273 1040.2 394.273ZM1084.84 435.727C1081.57 435.727 1078.75 434.955 1076.39 433.409C1074.02 431.864 1072.2 429.735 1070.93 427.023C1069.66 424.311 1069.02 421.212 1069.02 417.727C1069.02 414.182 1069.67 411.053 1070.98 408.341C1072.3 405.614 1074.13 403.485 1076.48 401.955C1078.84 400.409 1081.6 399.636 1084.75 399.636C1087.2 399.636 1089.42 400.091 1091.39 401C1093.36 401.909 1094.97 403.182 1096.23 404.818C1097.48 406.455 1098.27 408.364 1098.57 410.545H1093.2C1092.8 408.955 1091.89 407.545 1090.48 406.318C1089.08 405.076 1087.2 404.455 1084.84 404.455C1082.75 404.455 1080.92 405 1079.34 406.091C1077.78 407.167 1076.56 408.689 1075.68 410.659C1074.82 412.614 1074.39 414.909 1074.39 417.545C1074.39 420.242 1074.81 422.591 1075.66 424.591C1076.52 426.591 1077.73 428.144 1079.3 429.25C1080.87 430.356 1082.72 430.909 1084.84 430.909C1086.23 430.909 1087.5 430.667 1088.64 430.182C1089.77 429.697 1090.73 429 1091.52 428.091C1092.31 427.182 1092.87 426.091 1093.2 424.818H1098.57C1098.27 426.879 1097.52 428.735 1096.32 430.386C1095.14 432.023 1093.57 433.326 1091.61 434.295C1089.67 435.25 1087.42 435.727 1084.84 435.727ZM1120.59 435.727C1117.44 435.727 1114.67 434.977 1112.3 433.477C1109.93 431.977 1108.08 429.879 1106.75 427.182C1105.43 424.485 1104.77 421.333 1104.77 417.727C1104.77 414.091 1105.43 410.917 1106.75 408.205C1108.08 405.492 1109.93 403.386 1112.3 401.886C1114.67 400.386 1117.44 399.636 1120.59 399.636C1123.74 399.636 1126.5 400.386 1128.86 401.886C1131.24 403.386 1133.09 405.492 1134.41 408.205C1135.74 410.917 1136.41 414.091 1136.41 417.727C1136.41 421.333 1135.74 424.485 1134.41 427.182C1133.09 429.879 1131.24 431.977 1128.86 433.477C1126.5 434.977 1123.74 435.727 1120.59 435.727ZM1120.59 430.909C1122.98 430.909 1124.95 430.295 1126.5 429.068C1128.05 427.841 1129.19 426.227 1129.93 424.227C1130.67 422.227 1131.05 420.061 1131.05 417.727C1131.05 415.394 1130.67 413.22 1129.93 411.205C1129.19 409.189 1128.05 407.561 1126.5 406.318C1124.95 405.076 1122.98 404.455 1120.59 404.455C1118.2 404.455 1116.23 405.076 1114.68 406.318C1113.14 407.561 1111.99 409.189 1111.25 411.205C1110.51 413.22 1110.14 415.394 1110.14 417.727C1110.14 420.061 1110.51 422.227 1111.25 424.227C1111.99 426.227 1113.14 427.841 1114.68 429.068C1116.23 430.295 1118.2 430.909 1120.59 430.909ZM1149.96 414V435H1144.6V400.091H1149.78V405.545H1150.23C1151.05 403.773 1152.29 402.348 1153.96 401.273C1155.63 400.182 1157.78 399.636 1160.41 399.636C1162.78 399.636 1164.85 400.121 1166.62 401.091C1168.39 402.045 1169.77 403.5 1170.76 405.455C1171.74 407.394 1172.23 409.848 1172.23 412.818V435H1166.87V413.182C1166.87 410.439 1166.16 408.303 1164.73 406.773C1163.31 405.227 1161.35 404.455 1158.87 404.455C1157.16 404.455 1155.63 404.826 1154.28 405.568C1152.95 406.311 1151.89 407.394 1151.12 408.818C1150.35 410.242 1149.96 411.97 1149.96 414ZM1197.22 400.091V404.636H1179.12V400.091H1197.22ZM1184.4 391.727H1189.76V425C1189.76 426.515 1189.98 427.652 1190.42 428.409C1190.88 429.152 1191.45 429.652 1192.15 429.909C1192.86 430.152 1193.61 430.273 1194.4 430.273C1194.99 430.273 1195.47 430.242 1195.85 430.182C1196.23 430.106 1196.53 430.045 1196.76 430L1197.85 434.818C1197.49 434.955 1196.98 435.091 1196.33 435.227C1195.68 435.379 1194.85 435.455 1193.85 435.455C1192.34 435.455 1190.85 435.129 1189.4 434.477C1187.96 433.826 1186.76 432.833 1185.81 431.5C1184.87 430.167 1184.4 428.485 1184.4 426.455V391.727ZM1215.56 435.818C1213.34 435.818 1211.34 435.402 1209.53 434.568C1207.73 433.72 1206.3 432.5 1205.24 430.909C1204.18 429.303 1203.65 427.364 1203.65 425.091C1203.65 423.091 1204.04 421.47 1204.83 420.227C1205.62 418.97 1206.67 417.985 1207.99 417.273C1209.31 416.561 1210.76 416.03 1212.35 415.682C1213.96 415.318 1215.57 415.03 1217.19 414.818C1219.31 414.545 1221.03 414.341 1222.35 414.205C1223.69 414.053 1224.66 413.803 1225.26 413.455C1225.88 413.106 1226.19 412.5 1226.19 411.636V411.455C1226.19 409.212 1225.58 407.47 1224.35 406.227C1223.14 404.985 1221.3 404.364 1218.83 404.364C1216.27 404.364 1214.26 404.924 1212.81 406.045C1211.35 407.167 1210.33 408.364 1209.74 409.636L1204.65 407.818C1205.56 405.697 1206.77 404.045 1208.28 402.864C1209.81 401.667 1211.48 400.833 1213.28 400.364C1215.1 399.879 1216.89 399.636 1218.65 399.636C1219.77 399.636 1221.06 399.773 1222.51 400.045C1223.98 400.303 1225.4 400.841 1226.76 401.659C1228.14 402.477 1229.28 403.712 1230.19 405.364C1231.1 407.015 1231.56 409.227 1231.56 412V435H1226.19V430.273H1225.92C1225.56 431.03 1224.95 431.841 1224.1 432.705C1223.25 433.568 1222.13 434.303 1220.72 434.909C1219.31 435.515 1217.59 435.818 1215.56 435.818ZM1216.38 431C1218.5 431 1220.28 430.583 1221.74 429.75C1223.21 428.917 1224.31 427.841 1225.06 426.523C1225.81 425.205 1226.19 423.818 1226.19 422.364V417.455C1225.97 417.727 1225.47 417.977 1224.69 418.205C1223.94 418.417 1223.06 418.606 1222.06 418.773C1221.07 418.924 1220.11 419.061 1219.17 419.182C1218.25 419.288 1217.5 419.379 1216.92 419.455C1215.53 419.636 1214.22 419.932 1213.01 420.341C1211.81 420.735 1210.84 421.333 1210.1 422.136C1209.38 422.924 1209.01 424 1209.01 425.364C1209.01 427.227 1209.7 428.636 1211.08 429.591C1212.47 430.53 1214.24 431 1216.38 431ZM1256.53 400.091V404.636H1238.44V400.091H1256.53ZM1243.71 391.727H1249.07V425C1249.07 426.515 1249.29 427.652 1249.73 428.409C1250.19 429.152 1250.76 429.652 1251.46 429.909C1252.17 430.152 1252.92 430.273 1253.71 430.273C1254.3 430.273 1254.79 430.242 1255.16 430.182C1255.54 430.106 1255.85 430.045 1256.07 430L1257.16 434.818C1256.8 434.955 1256.29 435.091 1255.64 435.227C1254.99 435.379 1254.16 435.455 1253.16 435.455C1251.65 435.455 1250.16 435.129 1248.71 434.477C1247.27 433.826 1246.07 432.833 1245.12 431.5C1244.18 430.167 1243.71 428.485 1243.71 426.455V391.727ZM1279.78 400.091V404.636H1261.69V400.091H1279.78ZM1266.96 391.727H1272.32V425C1272.32 426.515 1272.54 427.652 1272.98 428.409C1273.44 429.152 1274.01 429.652 1274.71 429.909C1275.42 430.152 1276.17 430.273 1276.96 430.273C1277.55 430.273 1278.04 430.242 1278.41 430.182C1278.79 430.106 1279.1 430.045 1279.32 430L1280.41 434.818C1280.05 434.955 1279.54 435.091 1278.89 435.227C1278.24 435.379 1277.41 435.455 1276.41 435.455C1274.9 435.455 1273.41 435.129 1271.96 434.477C1270.52 433.826 1269.32 432.833 1268.37 431.5C1267.43 430.167 1266.96 428.485 1266.96 426.455V391.727ZM1301.65 435.727C1298.5 435.727 1295.74 434.977 1293.36 433.477C1290.99 431.977 1289.15 429.879 1287.81 427.182C1286.49 424.485 1285.84 421.333 1285.84 417.727C1285.84 414.091 1286.49 410.917 1287.81 408.205C1289.15 405.492 1290.99 403.386 1293.36 401.886C1295.74 400.386 1298.5 399.636 1301.65 399.636C1304.8 399.636 1307.56 400.386 1309.93 401.886C1312.3 403.386 1314.15 405.492 1315.47 408.205C1316.8 410.917 1317.47 414.091 1317.47 417.727C1317.47 421.333 1316.8 424.485 1315.47 427.182C1314.15 429.879 1312.3 431.977 1309.93 433.477C1307.56 434.977 1304.8 435.727 1301.65 435.727ZM1301.65 430.909C1304.05 430.909 1306.02 430.295 1307.56 429.068C1309.11 427.841 1310.25 426.227 1310.99 424.227C1311.74 422.227 1312.11 420.061 1312.11 417.727C1312.11 415.394 1311.74 413.22 1310.99 411.205C1310.25 409.189 1309.11 407.561 1307.56 406.318C1306.02 405.076 1304.05 404.455 1301.65 404.455C1299.26 404.455 1297.29 405.076 1295.74 406.318C1294.2 407.561 1293.05 409.189 1292.31 411.205C1291.57 413.22 1291.2 415.394 1291.2 417.727C1291.2 420.061 1291.57 422.227 1292.31 424.227C1293.05 426.227 1294.2 427.841 1295.74 429.068C1297.29 430.295 1299.26 430.909 1301.65 430.909ZM770.091 455.091V459.636H752V455.091H770.091ZM757.273 446.727H762.636V480C762.636 481.515 762.856 482.652 763.295 483.409C763.75 484.152 764.326 484.652 765.023 484.909C765.735 485.152 766.485 485.273 767.273 485.273C767.864 485.273 768.348 485.242 768.727 485.182C769.106 485.106 769.409 485.045 769.636 485L770.727 489.818C770.364 489.955 769.856 490.091 769.205 490.227C768.553 490.379 767.727 490.455 766.727 490.455C765.212 490.455 763.727 490.129 762.273 489.477C760.833 488.826 759.636 487.833 758.682 486.5C757.742 485.167 757.273 483.485 757.273 481.455V446.727ZM778.159 490V455.091H783.341V460.364H783.705C784.341 458.636 785.492 457.235 787.159 456.159C788.826 455.083 790.705 454.545 792.795 454.545C793.189 454.545 793.682 454.553 794.273 454.568C794.864 454.583 795.311 454.606 795.614 454.636V460.091C795.432 460.045 795.015 459.977 794.364 459.886C793.727 459.78 793.053 459.727 792.341 459.727C790.644 459.727 789.129 460.083 787.795 460.795C786.477 461.492 785.432 462.462 784.659 463.705C783.902 464.932 783.523 466.333 783.523 467.909V490H778.159ZM812.244 490.818C810.032 490.818 808.025 490.402 806.222 489.568C804.419 488.72 802.987 487.5 801.926 485.909C800.866 484.303 800.335 482.364 800.335 480.091C800.335 478.091 800.729 476.47 801.517 475.227C802.305 473.97 803.358 472.985 804.676 472.273C805.994 471.561 807.449 471.03 809.04 470.682C810.646 470.318 812.259 470.03 813.881 469.818C816.002 469.545 817.722 469.341 819.04 469.205C820.373 469.053 821.343 468.803 821.949 468.455C822.57 468.106 822.881 467.5 822.881 466.636V466.455C822.881 464.212 822.267 462.47 821.04 461.227C819.828 459.985 817.987 459.364 815.517 459.364C812.956 459.364 810.949 459.924 809.494 461.045C808.04 462.167 807.017 463.364 806.426 464.636L801.335 462.818C802.244 460.697 803.456 459.045 804.972 457.864C806.502 456.667 808.169 455.833 809.972 455.364C811.79 454.879 813.578 454.636 815.335 454.636C816.456 454.636 817.744 454.773 819.199 455.045C820.669 455.303 822.085 455.841 823.449 456.659C824.828 457.477 825.972 458.712 826.881 460.364C827.79 462.015 828.244 464.227 828.244 467V490H822.881V485.273H822.608C822.244 486.03 821.638 486.841 820.79 487.705C819.941 488.568 818.813 489.303 817.403 489.909C815.994 490.515 814.275 490.818 812.244 490.818ZM813.062 486C815.184 486 816.972 485.583 818.426 484.75C819.896 483.917 821.002 482.841 821.744 481.523C822.502 480.205 822.881 478.818 822.881 477.364V472.455C822.653 472.727 822.153 472.977 821.381 473.205C820.623 473.417 819.744 473.606 818.744 473.773C817.759 473.924 816.797 474.061 815.858 474.182C814.934 474.288 814.184 474.379 813.608 474.455C812.214 474.636 810.911 474.932 809.699 475.341C808.502 475.735 807.532 476.333 806.79 477.136C806.063 477.924 805.699 479 805.699 480.364C805.699 482.227 806.388 483.636 807.767 484.591C809.161 485.53 810.926 486 813.062 486ZM856.034 490V455.091H861.216V460.545H861.67C862.398 458.682 863.572 457.235 865.193 456.205C866.814 455.159 868.761 454.636 871.034 454.636C873.337 454.636 875.254 455.159 876.784 456.205C878.33 457.235 879.534 458.682 880.398 460.545H880.761C881.655 458.742 882.996 457.311 884.784 456.25C886.572 455.174 888.716 454.636 891.216 454.636C894.337 454.636 896.89 455.614 898.875 457.568C900.86 459.508 901.852 462.53 901.852 466.636V490H896.489V466.636C896.489 464.061 895.784 462.22 894.375 461.114C892.966 460.008 891.307 459.455 889.398 459.455C886.943 459.455 885.042 460.197 883.693 461.682C882.345 463.152 881.67 465.015 881.67 467.273V490H876.216V466.091C876.216 464.106 875.572 462.508 874.284 461.295C872.996 460.068 871.337 459.455 869.307 459.455C867.913 459.455 866.61 459.826 865.398 460.568C864.201 461.311 863.231 462.341 862.489 463.659C861.761 464.962 861.398 466.47 861.398 468.182V490H856.034ZM926.295 490.727C922.932 490.727 920.03 489.985 917.591 488.5C915.167 487 913.295 484.909 911.977 482.227C910.674 479.53 910.023 476.394 910.023 472.818C910.023 469.242 910.674 466.091 911.977 463.364C913.295 460.621 915.129 458.485 917.477 456.955C919.841 455.409 922.598 454.636 925.75 454.636C927.568 454.636 929.364 454.939 931.136 455.545C932.909 456.152 934.523 457.136 935.977 458.5C937.432 459.848 938.591 461.636 939.455 463.864C940.318 466.091 940.75 468.833 940.75 472.091V474.364H913.841V469.727H935.295C935.295 467.758 934.902 466 934.114 464.455C933.341 462.909 932.235 461.689 930.795 460.795C929.371 459.902 927.689 459.455 925.75 459.455C923.614 459.455 921.765 459.985 920.205 461.045C918.659 462.091 917.47 463.455 916.636 465.136C915.803 466.818 915.386 468.621 915.386 470.545V473.636C915.386 476.273 915.841 478.508 916.75 480.341C917.674 482.159 918.955 483.545 920.591 484.5C922.227 485.439 924.129 485.909 926.295 485.909C927.705 485.909 928.977 485.712 930.114 485.318C931.265 484.909 932.258 484.303 933.091 483.5C933.924 482.682 934.568 481.667 935.023 480.455L940.205 481.909C939.659 483.667 938.742 485.212 937.455 486.545C936.167 487.864 934.576 488.894 932.682 489.636C930.788 490.364 928.659 490.727 926.295 490.727ZM962.091 490.727C959.182 490.727 956.614 489.992 954.386 488.523C952.159 487.038 950.417 484.947 949.159 482.25C947.902 479.538 947.273 476.333 947.273 472.636C947.273 468.97 947.902 465.788 949.159 463.091C950.417 460.394 952.167 458.311 954.409 456.841C956.652 455.371 959.242 454.636 962.182 454.636C964.455 454.636 966.25 455.015 967.568 455.773C968.902 456.515 969.917 457.364 970.614 458.318C971.326 459.258 971.879 460.03 972.273 460.636H972.727V443.455H978.091V490H972.909V484.636H972.273C971.879 485.273 971.318 486.076 970.591 487.045C969.864 488 968.826 488.856 967.477 489.614C966.129 490.356 964.333 490.727 962.091 490.727ZM962.818 485.909C964.97 485.909 966.788 485.348 968.273 484.227C969.758 483.091 970.886 481.523 971.659 479.523C972.432 477.508 972.818 475.182 972.818 472.545C972.818 469.939 972.439 467.659 971.682 465.705C970.924 463.735 969.803 462.205 968.318 461.114C966.833 460.008 965 459.455 962.818 459.455C960.545 459.455 958.652 460.038 957.136 461.205C955.636 462.356 954.508 463.924 953.75 465.909C953.008 467.879 952.636 470.091 952.636 472.545C952.636 475.03 953.015 477.288 953.773 479.318C954.545 481.333 955.682 482.939 957.182 484.136C958.697 485.318 960.576 485.909 962.818 485.909ZM988.659 490V455.091H994.023V490H988.659ZM991.386 449.273C990.341 449.273 989.439 448.917 988.682 448.205C987.939 447.492 987.568 446.636 987.568 445.636C987.568 444.636 987.939 443.78 988.682 443.068C989.439 442.356 990.341 442 991.386 442C992.432 442 993.326 442.356 994.068 443.068C994.826 443.78 995.205 444.636 995.205 445.636C995.205 446.636 994.826 447.492 994.068 448.205C993.326 448.917 992.432 449.273 991.386 449.273ZM1018.03 490.727C1014.76 490.727 1011.94 489.955 1009.57 488.409C1007.21 486.864 1005.39 484.735 1004.12 482.023C1002.85 479.311 1002.21 476.212 1002.21 472.727C1002.21 469.182 1002.86 466.053 1004.16 463.341C1005.48 460.614 1007.32 458.485 1009.66 456.955C1012.03 455.409 1014.79 454.636 1017.94 454.636C1020.39 454.636 1022.6 455.091 1024.57 456C1026.54 456.909 1028.16 458.182 1029.41 459.818C1030.67 461.455 1031.45 463.364 1031.76 465.545H1026.39C1025.98 463.955 1025.07 462.545 1023.66 461.318C1022.27 460.076 1020.39 459.455 1018.03 459.455C1015.94 459.455 1014.1 460 1012.53 461.091C1010.97 462.167 1009.75 463.689 1008.87 465.659C1008.01 467.614 1007.57 469.909 1007.57 472.545C1007.57 475.242 1008 477.591 1008.85 479.591C1009.71 481.591 1010.92 483.144 1012.48 484.25C1014.06 485.356 1015.91 485.909 1018.03 485.909C1019.42 485.909 1020.69 485.667 1021.82 485.182C1022.96 484.697 1023.92 484 1024.71 483.091C1025.5 482.182 1026.06 481.091 1026.39 479.818H1031.76C1031.45 481.879 1030.7 483.735 1029.51 485.386C1028.32 487.023 1026.76 488.326 1024.8 489.295C1022.86 490.25 1020.6 490.727 1018.03 490.727ZM1053.78 490.727C1050.63 490.727 1047.86 489.977 1045.48 488.477C1043.12 486.977 1041.27 484.879 1039.94 482.182C1038.62 479.485 1037.96 476.333 1037.96 472.727C1037.96 469.091 1038.62 465.917 1039.94 463.205C1041.27 460.492 1043.12 458.386 1045.48 456.886C1047.86 455.386 1050.63 454.636 1053.78 454.636C1056.93 454.636 1059.69 455.386 1062.05 456.886C1064.43 458.386 1066.28 460.492 1067.6 463.205C1068.93 465.917 1069.6 469.091 1069.6 472.727C1069.6 476.333 1068.93 479.485 1067.6 482.182C1066.28 484.879 1064.43 486.977 1062.05 488.477C1059.69 489.977 1056.93 490.727 1053.78 490.727ZM1053.78 485.909C1056.17 485.909 1058.14 485.295 1059.69 484.068C1061.23 482.841 1062.38 481.227 1063.12 479.227C1063.86 477.227 1064.23 475.061 1064.23 472.727C1064.23 470.394 1063.86 468.22 1063.12 466.205C1062.38 464.189 1061.23 462.561 1059.69 461.318C1058.14 460.076 1056.17 459.455 1053.78 459.455C1051.38 459.455 1049.41 460.076 1047.87 461.318C1046.32 462.561 1045.18 464.189 1044.44 466.205C1043.7 468.22 1043.32 470.394 1043.32 472.727C1043.32 475.061 1043.7 477.227 1044.44 479.227C1045.18 481.227 1046.32 482.841 1047.87 484.068C1049.41 485.295 1051.38 485.909 1053.78 485.909ZM1110.42 490.727C1107.06 490.727 1104.16 489.985 1101.72 488.5C1099.29 487 1097.42 484.909 1096.1 482.227C1094.8 479.53 1094.15 476.394 1094.15 472.818C1094.15 469.242 1094.8 466.091 1096.1 463.364C1097.42 460.621 1099.25 458.485 1101.6 456.955C1103.97 455.409 1106.72 454.636 1109.88 454.636C1111.69 454.636 1113.49 454.939 1115.26 455.545C1117.03 456.152 1118.65 457.136 1120.1 458.5C1121.56 459.848 1122.72 461.636 1123.58 463.864C1124.44 466.091 1124.88 468.833 1124.88 472.091V474.364H1097.97V469.727H1119.42C1119.42 467.758 1119.03 466 1118.24 464.455C1117.47 462.909 1116.36 461.689 1114.92 460.795C1113.5 459.902 1111.81 459.455 1109.88 459.455C1107.74 459.455 1105.89 459.985 1104.33 461.045C1102.78 462.091 1101.59 463.455 1100.76 465.136C1099.93 466.818 1099.51 468.621 1099.51 470.545V473.636C1099.51 476.273 1099.97 478.508 1100.88 480.341C1101.8 482.159 1103.08 483.545 1104.72 484.5C1106.35 485.439 1108.25 485.909 1110.42 485.909C1111.83 485.909 1113.1 485.712 1114.24 485.318C1115.39 484.909 1116.38 484.303 1117.22 483.5C1118.05 482.682 1118.69 481.667 1119.15 480.455L1124.33 481.909C1123.78 483.667 1122.87 485.212 1121.58 486.545C1120.29 487.864 1118.7 488.894 1116.81 489.636C1114.91 490.364 1112.78 490.727 1110.42 490.727ZM1151.03 503.091V455.091H1156.22V460.636H1156.85C1157.25 460.03 1157.79 459.258 1158.49 458.318C1159.2 457.364 1160.22 456.515 1161.53 455.773C1162.87 455.015 1164.67 454.636 1166.94 454.636C1169.88 454.636 1172.47 455.371 1174.72 456.841C1176.96 458.311 1178.71 460.394 1179.97 463.091C1181.22 465.788 1181.85 468.97 1181.85 472.636C1181.85 476.333 1181.22 479.538 1179.97 482.25C1178.71 484.947 1176.97 487.038 1174.74 488.523C1172.51 489.992 1169.94 490.727 1167.03 490.727C1164.79 490.727 1163 490.356 1161.65 489.614C1160.3 488.856 1159.26 488 1158.53 487.045C1157.81 486.076 1157.25 485.273 1156.85 484.636H1156.4V503.091H1151.03ZM1156.31 472.545C1156.31 475.182 1156.69 477.508 1157.47 479.523C1158.24 481.523 1159.37 483.091 1160.85 484.227C1162.34 485.348 1164.16 485.909 1166.31 485.909C1168.55 485.909 1170.42 485.318 1171.92 484.136C1173.44 482.939 1174.57 481.333 1175.33 479.318C1176.1 477.288 1176.49 475.03 1176.49 472.545C1176.49 470.091 1176.11 467.879 1175.35 465.909C1174.61 463.924 1173.48 462.356 1171.97 461.205C1170.47 460.038 1168.58 459.455 1166.31 459.455C1164.13 459.455 1162.29 460.008 1160.81 461.114C1159.32 462.205 1158.2 463.735 1157.44 465.705C1156.69 467.659 1156.31 469.939 1156.31 472.545ZM1200.31 490.818C1198.09 490.818 1196.09 490.402 1194.28 489.568C1192.48 488.72 1191.05 487.5 1189.99 485.909C1188.93 484.303 1188.4 482.364 1188.4 480.091C1188.4 478.091 1188.79 476.47 1189.58 475.227C1190.37 473.97 1191.42 472.985 1192.74 472.273C1194.06 471.561 1195.51 471.03 1197.1 470.682C1198.71 470.318 1200.32 470.03 1201.94 469.818C1204.06 469.545 1205.78 469.341 1207.1 469.205C1208.44 469.053 1209.41 468.803 1210.01 468.455C1210.63 468.106 1210.94 467.5 1210.94 466.636V466.455C1210.94 464.212 1210.33 462.47 1209.1 461.227C1207.89 459.985 1206.05 459.364 1203.58 459.364C1201.02 459.364 1199.01 459.924 1197.56 461.045C1196.1 462.167 1195.08 463.364 1194.49 464.636L1189.4 462.818C1190.31 460.697 1191.52 459.045 1193.03 457.864C1194.56 456.667 1196.23 455.833 1198.03 455.364C1199.85 454.879 1201.64 454.636 1203.4 454.636C1204.52 454.636 1205.81 454.773 1207.26 455.045C1208.73 455.303 1210.15 455.841 1211.51 456.659C1212.89 457.477 1214.03 458.712 1214.94 460.364C1215.85 462.015 1216.31 464.227 1216.31 467V490H1210.94V485.273H1210.67C1210.31 486.03 1209.7 486.841 1208.85 487.705C1208 488.568 1206.88 489.303 1205.47 489.909C1204.06 490.515 1202.34 490.818 1200.31 490.818ZM1201.12 486C1203.25 486 1205.03 485.583 1206.49 484.75C1207.96 483.917 1209.06 482.841 1209.81 481.523C1210.56 480.205 1210.94 478.818 1210.94 477.364V472.455C1210.72 472.727 1210.22 472.977 1209.44 473.205C1208.69 473.417 1207.81 473.606 1206.81 473.773C1205.82 473.924 1204.86 474.061 1203.92 474.182C1203 474.288 1202.25 474.379 1201.67 474.455C1200.28 474.636 1198.97 474.932 1197.76 475.341C1196.56 475.735 1195.59 476.333 1194.85 477.136C1194.13 477.924 1193.76 479 1193.76 480.364C1193.76 482.227 1194.45 483.636 1195.83 484.591C1197.22 485.53 1198.99 486 1201.12 486ZM1225.1 490V485.909L1244.91 460.455V460.091H1225.73V455.091H1251.82V459.364L1232.55 484.636V485H1252.46V490H1225.1ZM1260.72 490V455.091H1266.09V490H1260.72ZM1263.45 449.273C1262.4 449.273 1261.5 448.917 1260.74 448.205C1260 447.492 1259.63 446.636 1259.63 445.636C1259.63 444.636 1260 443.78 1260.74 443.068C1261.5 442.356 1262.4 442 1263.45 442C1264.49 442 1265.39 442.356 1266.13 443.068C1266.89 443.78 1267.27 444.636 1267.27 445.636C1267.27 446.636 1266.89 447.492 1266.13 448.205C1265.39 448.917 1264.49 449.273 1263.45 449.273ZM1290.55 490.727C1287.18 490.727 1284.28 489.985 1281.84 488.5C1279.42 487 1277.55 484.909 1276.23 482.227C1274.92 479.53 1274.27 476.394 1274.27 472.818C1274.27 469.242 1274.92 466.091 1276.23 463.364C1277.55 460.621 1279.38 458.485 1281.73 456.955C1284.09 455.409 1286.85 454.636 1290 454.636C1291.82 454.636 1293.61 454.939 1295.39 455.545C1297.16 456.152 1298.77 457.136 1300.23 458.5C1301.68 459.848 1302.84 461.636 1303.7 463.864C1304.57 466.091 1305 468.833 1305 472.091V474.364H1278.09V469.727H1299.55C1299.55 467.758 1299.15 466 1298.36 464.455C1297.59 462.909 1296.48 461.689 1295.05 460.795C1293.62 459.902 1291.94 459.455 1290 459.455C1287.86 459.455 1286.02 459.985 1284.45 461.045C1282.91 462.091 1281.72 463.455 1280.89 465.136C1280.05 466.818 1279.64 468.621 1279.64 470.545V473.636C1279.64 476.273 1280.09 478.508 1281 480.341C1281.92 482.159 1283.2 483.545 1284.84 484.5C1286.48 485.439 1288.38 485.909 1290.55 485.909C1291.95 485.909 1293.23 485.712 1294.36 485.318C1295.52 484.909 1296.51 484.303 1297.34 483.5C1298.17 482.682 1298.82 481.667 1299.27 480.455L1304.45 481.909C1303.91 483.667 1302.99 485.212 1301.7 486.545C1300.42 487.864 1298.83 488.894 1296.93 489.636C1295.04 490.364 1292.91 490.727 1290.55 490.727ZM1318.52 469V490H1313.16V455.091H1318.34V460.545H1318.8C1319.61 458.773 1320.86 457.348 1322.52 456.273C1324.19 455.182 1326.34 454.636 1328.98 454.636C1331.34 454.636 1333.41 455.121 1335.18 456.091C1336.95 457.045 1338.33 458.5 1339.32 460.455C1340.3 462.394 1340.8 464.848 1340.8 467.818V490H1335.43V468.182C1335.43 465.439 1334.72 463.303 1333.3 461.773C1331.87 460.227 1329.92 459.455 1327.43 459.455C1325.72 459.455 1324.19 459.826 1322.84 460.568C1321.51 461.311 1320.45 462.394 1319.68 463.818C1318.91 465.242 1318.52 466.97 1318.52 469ZM1365.78 455.091V459.636H1347.69V455.091H1365.78ZM1352.96 446.727H1358.32V480C1358.32 481.515 1358.54 482.652 1358.98 483.409C1359.44 484.152 1360.01 484.652 1360.71 484.909C1361.42 485.152 1362.17 485.273 1362.96 485.273C1363.55 485.273 1364.04 485.242 1364.41 485.182C1364.79 485.106 1365.1 485.045 1365.32 485L1366.41 489.818C1366.05 489.955 1365.54 490.091 1364.89 490.227C1364.24 490.379 1363.41 490.455 1362.41 490.455C1360.9 490.455 1359.41 490.129 1357.96 489.477C1356.52 488.826 1355.32 487.833 1354.37 486.5C1353.43 485.167 1352.96 483.485 1352.96 481.455V446.727ZM1388.11 490.727C1384.74 490.727 1381.84 489.985 1379.4 488.5C1376.98 487 1375.11 484.909 1373.79 482.227C1372.49 479.53 1371.84 476.394 1371.84 472.818C1371.84 469.242 1372.49 466.091 1373.79 463.364C1375.11 460.621 1376.94 458.485 1379.29 456.955C1381.65 455.409 1384.41 454.636 1387.56 454.636C1389.38 454.636 1391.18 454.939 1392.95 455.545C1394.72 456.152 1396.34 457.136 1397.79 458.5C1399.24 459.848 1400.4 461.636 1401.27 463.864C1402.13 466.091 1402.56 468.833 1402.56 472.091V474.364H1375.65V469.727H1397.11C1397.11 467.758 1396.71 466 1395.93 464.455C1395.15 462.909 1394.05 461.689 1392.61 460.795C1391.18 459.902 1389.5 459.455 1387.56 459.455C1385.43 459.455 1383.58 459.985 1382.02 461.045C1380.47 462.091 1379.28 463.455 1378.45 465.136C1377.62 466.818 1377.2 468.621 1377.2 470.545V473.636C1377.2 476.273 1377.65 478.508 1378.56 480.341C1379.49 482.159 1380.77 483.545 1382.4 484.5C1384.04 485.439 1385.94 485.909 1388.11 485.909C1389.52 485.909 1390.79 485.712 1391.93 485.318C1393.08 484.909 1394.07 484.303 1394.9 483.5C1395.74 482.682 1396.38 481.667 1396.84 480.455L1402.02 481.909C1401.47 483.667 1400.55 485.212 1399.27 486.545C1397.98 487.864 1396.39 488.894 1394.49 489.636C1392.6 490.364 1390.47 490.727 1388.11 490.727Z" fill="#7E7C8D"/>
<circle cx="674.287" cy="706.756" r="68.7124" fill="#1976D2"/>
<circle cx="605.952" cy="123.456" r="90.2322" fill="#1976D2"/>
<circle cx="90.2322" cy="616.524" r="90.2322" fill="#1976D2"/>
<rect x="580.943" y="585.943" width="151.987" height="31.6929" rx="15.8464" transform="rotate(48.1847 580.943 585.943)" fill="#1976D2"/>
<path d="M363.949 0C403.191 1.93203e-05 440.983 6.21071 476.395 17.7031C504.038 26.6748 509.058 62.4443 501.493 90.5059C498.954 99.9269 497.599 109.834 497.599 120.058C497.599 182.611 548.307 233.32 610.86 233.32C620.595 233.32 630.044 232.091 639.059 229.781C667.215 222.566 702.924 228.025 711.553 255.78C722.176 289.952 727.898 326.282 727.898 363.949C727.898 564.953 564.953 727.898 363.949 727.898C314.521 727.898 267.394 718.044 224.426 700.193C202.139 690.935 196.071 663.593 199.617 639.722C200.431 634.246 200.852 628.643 200.852 622.941C200.851 560.389 150.142 509.68 87.5898 509.68C84.3932 509.68 81.2273 509.812 78.0977 510.071C54.0424 512.067 27.1409 504.218 19.3574 481.369C6.808 444.53 2.02384e-05 405.035 0 363.949C0 162.946 162.946 0 363.949 0ZM334.787 147.996C317.114 147.996 302.787 162.323 302.787 179.996V256.032C302.787 281.437 282.192 302.032 256.787 302.032H180.751C163.078 302.032 148.751 316.359 148.751 334.032V393.865C148.751 411.538 163.078 425.865 180.751 425.865H256.787C282.192 425.865 302.787 446.46 302.787 471.865V547.902C302.787 565.575 317.114 579.902 334.787 579.902H393.865C411.538 579.902 425.865 565.575 425.865 547.902V471.865C425.865 446.46 446.46 425.865 471.865 425.865H548.657C566.33 425.865 580.657 411.538 580.657 393.865V334.032C580.657 316.359 566.33 302.032 548.657 302.032H471.865C446.46 302.032 425.865 281.437 425.865 256.032V179.996C425.865 162.323 411.538 147.996 393.865 147.996H334.787Z" fill="#1976D2"/>
</svg>
